<mxfile host="app.diagrams.net" modified="2023-10-18T15:02:24.208Z" agent="Mozilla/5.0 (Macintosh; Intel Mac OS X 10_15_7) AppleWebKit/605.1.15 (KHTML, like Gecko) Version/17.0 Safari/605.1.15" version="22.0.4" etag="qDnizGgI-A_NAjzpS7sk" type="github">
  <diagram name="Pagina-1" id="Qo7C2l9sloIrOFQpLLxX">
    <mxGraphModel>
      <root>
        <mxCell id="0" />
        <mxCell id="1" parent="0" />
      </root>
    </mxGraphModel>
  </diagram>
</mxfile>
